<svg width="48" height="48" viewBox="0 0 48 48" fill="none" xmlns="http://www.w3.org/2000/svg">
<rect width="48" height="48" rx="24" fill="#F8D375"/>
<g clip-path="url(#clip0_319_842)">
<path d="M24.1199 12.72C23.8068 12.7575 14.0474 19.3013 13.9912 19.5C13.9349 19.7006 13.9124 21.7856 13.9124 21.7856L15.1705 22.185L15.1762 23.8425L15.8493 25.2206V31.0463L15.3468 32.1431L13.9687 32.55V33.5363L12.8887 33.8644C12.8887 33.8644 12.9037 34.71 12.9037 34.8506C12.9037 34.9913 12.9505 35.2894 13.5149 35.2894C14.0793 35.2894 34.678 35.1938 34.8862 35.1938C35.0943 35.1938 35.3099 35.1525 35.3212 34.7794C35.3324 34.4063 35.3099 33.8794 35.3099 33.8794L34.2637 33.3619L34.2599 32.535L32.5574 32.01L32.1468 30.8475L32.1524 25.3706L32.8049 23.9944L33.0018 23.6213V22.14L34.0987 21.7256C34.0987 21.7256 34.1193 19.5825 34.0874 19.5206C34.0593 19.4606 24.3787 12.69 24.1199 12.72Z" fill="#CDDFEE"/>
<path d="M14.8745 19.935C14.8163 20.0794 14.8013 21.1444 14.8538 21.1969C14.9063 21.2494 33.0301 21.2212 33.092 21.1706C33.1538 21.12 33.1632 19.9631 33.1332 19.8919C33.1032 19.8206 27.9938 16.3312 27.9938 16.3312L20.0945 16.3706C20.0926 16.3706 14.9082 19.8487 14.8745 19.935ZM12.8888 33.8681C12.872 33.8269 12.8888 33.6319 12.8888 33.5531C12.8888 33.4744 12.9638 33.3844 13.1326 33.3844C13.3013 33.3844 34.7213 33.3544 34.8263 33.3581C35.0907 33.3675 35.2688 33.4237 35.2951 33.5925C35.3213 33.7612 35.312 33.8831 35.312 33.8831L12.8888 33.8681ZM34.262 32.5369L13.9707 32.5519C13.9707 32.5519 13.9782 32.3437 13.9782 32.2725C13.9782 32.2012 14.0157 32.085 14.2576 32.085C14.4995 32.085 33.7426 32.0119 33.9076 32.0119C34.0726 32.0119 34.2526 32.0887 34.2751 32.2031C34.2976 32.3175 34.262 32.5369 34.262 32.5369ZM32.2988 31.2806L32.1488 30.8419L15.8457 30.8381L15.7238 31.3275L32.2988 31.2806ZM15.6582 24.8212L32.3945 24.8794L32.1545 25.3706L15.8513 25.4325L15.6582 24.8212ZM15.2926 24.1312C15.2926 24.1312 15.1445 24.0244 15.1201 23.8837C15.0957 23.7431 15.1613 23.6606 15.1613 23.6606L33.0038 23.6212C33.0038 23.6212 33.0713 23.76 33.0132 23.8575C32.9551 23.9569 32.7901 24.0469 32.7901 24.0469L15.2926 24.1312ZM13.9126 21.7856L34.1007 21.7256C34.1007 21.7256 34.1138 21.9187 34.1007 21.9994C34.0895 22.08 33.9845 22.1512 33.7163 22.1512H33.4482C33.4482 22.1512 14.5501 22.245 14.3401 22.245C14.1301 22.245 13.9801 22.1287 13.9445 22.035C13.9238 21.9731 13.9126 21.7856 13.9126 21.7856Z" fill="#94ADBC"/>
<path d="M15.377 20.4432L19.6238 17.5763L19.9088 20.4994L15.377 20.4432ZM28.4157 17.4807L32.6682 20.4807H28.3013L28.4157 17.4807Z" fill="#657582"/>
<path d="M18.2645 24.1181L18.9639 24.1163L19.5114 25.4306L19.4608 30.8419L19.0052 32.0681L18.1914 32.07L17.7433 30.8494L17.7227 25.4194L18.2645 24.1181ZM21.9883 24.0994L21.2927 25.4006L21.3452 30.8419L21.7577 32.0588L26.3008 32.04L26.7095 30.8419L26.7208 25.3894L26.1902 24.0788L21.9883 24.0994ZM29.132 24.0656L29.7489 24.0619L30.2945 25.3763L30.2927 30.8438L29.9758 32.0288L28.9464 32.0306L28.6314 30.8438L28.607 25.3819L29.132 24.0656Z" fill="#54636E"/>
<path d="M22.2412 32.0569V27.885L25.9012 27.9206L25.9087 32.0456L22.2412 32.0569Z" fill="#6BA4AE"/>
<path d="M23.8612 27.6956L23.8594 32.0512L24.2381 32.0494V27.7594L23.8612 27.6956Z" fill="#A5D0D7"/>
<path d="M22.2412 28.0837V27.0375H25.9012V28.0837C25.9012 28.0837 22.2731 28.0519 22.2412 28.0837Z" fill="#95ACBC"/>
<path d="M22.2415 27.0375H25.9015C25.9015 27.0375 25.9165 26.7113 25.5771 26.6794C25.2377 26.6475 22.744 26.6738 22.534 26.6794C22.2209 26.6888 22.2415 27.0375 22.2415 27.0375Z" fill="#CCDEED"/>
<path d="M24.0729 14.0831C21.356 14.1 19.2054 16.2487 19.2973 18.9656C19.3891 21.6825 21.881 23.5931 24.0729 23.5762C26.3735 23.5594 28.796 21.9131 28.9048 18.9506C29.0154 15.99 26.5216 14.0662 24.0729 14.0831Z" fill="#CDDFEE"/>
<path d="M24.0898 14.7337C21.8154 14.7487 19.9948 16.6143 20.0717 18.9806C20.1467 21.3468 22.1492 22.8468 23.9848 22.8637C26.1017 22.8825 28.0498 21.4987 28.1398 18.9206C28.2298 16.3425 26.1392 14.7206 24.0898 14.7337Z" fill="#94ADBC"/>
<path d="M23.4339 16.0556C23.4339 16.0556 23.3926 15.3319 23.4433 15.27C23.4939 15.2081 23.7001 15.2081 24.0995 15.2081C24.5008 15.2081 24.6639 15.2081 24.7258 15.2588C24.7876 15.3094 24.7558 16.1006 24.7558 16.1006C24.7558 16.1006 25.2995 16.305 25.6389 16.5675C25.9989 16.845 26.2558 17.2144 26.2351 17.2763C26.2145 17.3381 25.4964 17.9644 25.3933 17.9438C25.2901 17.9231 24.7051 17.2388 24.0076 17.1938C22.8995 17.1225 22.9089 17.985 23.597 18.2213C24.2851 18.4575 26.4545 18.645 26.3701 20.3719C26.2989 21.825 24.8308 21.9281 24.8308 21.9281C24.8308 21.9281 24.872 22.4719 24.8308 22.5038C24.7895 22.5356 23.4958 22.5544 23.4545 22.4944C23.4133 22.4344 23.4451 21.8775 23.4451 21.8775C23.4451 21.8775 22.8695 21.765 22.397 21.4463C21.9245 21.1275 21.5851 20.7075 21.5758 20.655C21.5664 20.6044 22.4083 19.8956 22.4683 19.875C22.5283 19.8544 23.3851 20.6981 24.1933 20.7675C25.0145 20.8388 25.3633 20.0288 24.2233 19.68C23.0833 19.3313 21.7389 19.0331 21.8008 17.6063C21.8626 16.1569 23.4339 16.0556 23.4339 16.0556Z" fill="#024FAC"/>
</g>
<defs>
<clipPath id="clip0_319_842">
<rect width="24" height="24" fill="white" transform="translate(12 12)"/>
</clipPath>
</defs>
</svg>
