<svg width="56" height="56" viewBox="0 0 56 56" fill="none" xmlns="http://www.w3.org/2000/svg">
<rect x="4" y="4" width="48" height="48" rx="24" fill="#B60000"/>
<rect opacity="0.25" width="56" height="56" rx="28" fill="#B60000"/>
<path d="M26 21H30C30 20.4696 29.7893 19.9609 29.4142 19.5858C29.0391 19.2107 28.5304 19 28 19C27.4696 19 26.9609 19.2107 26.5858 19.5858C26.2107 19.9609 26 20.4696 26 21ZM24.5 21C24.5 20.5404 24.5905 20.0852 24.7664 19.6606C24.9423 19.236 25.2001 18.8501 25.5251 18.5251C25.8501 18.2001 26.236 17.9423 26.6606 17.7664C27.0852 17.5905 27.5404 17.5 28 17.5C28.4596 17.5 28.9148 17.5905 29.3394 17.7664C29.764 17.9423 30.1499 18.2001 30.4749 18.5251C30.7999 18.8501 31.0577 19.236 31.2336 19.6606C31.4095 20.0852 31.5 20.5404 31.5 21H37.25C37.4489 21 37.6397 21.079 37.7803 21.2197C37.921 21.3603 38 21.5511 38 21.75C38 21.9489 37.921 22.1397 37.7803 22.2803C37.6397 22.421 37.4489 22.5 37.25 22.5H35.93L34.76 34.611C34.6702 35.539 34.238 36.4002 33.5477 37.0268C32.8573 37.6534 31.9583 38.0004 31.026 38H24.974C24.0419 38.0001 23.1431 37.653 22.4529 37.0265C21.7628 36.3999 21.3307 35.5388 21.241 34.611L20.07 22.5H18.75C18.5511 22.5 18.3603 22.421 18.2197 22.2803C18.079 22.1397 18 21.9489 18 21.75C18 21.5511 18.079 21.3603 18.2197 21.2197C18.3603 21.079 18.5511 21 18.75 21H24.5ZM26.5 25.75C26.5 25.5511 26.421 25.3603 26.2803 25.2197C26.1397 25.079 25.9489 25 25.75 25C25.5511 25 25.3603 25.079 25.2197 25.2197C25.079 25.3603 25 25.5511 25 25.75V33.25C25 33.4489 25.079 33.6397 25.2197 33.7803C25.3603 33.921 25.5511 34 25.75 34C25.9489 34 26.1397 33.921 26.2803 33.7803C26.421 33.6397 26.5 33.4489 26.5 33.25V25.75ZM30.25 25C30.0511 25 29.8603 25.079 29.7197 25.2197C29.579 25.3603 29.5 25.5511 29.5 25.75V33.25C29.5 33.4489 29.579 33.6397 29.7197 33.7803C29.8603 33.921 30.0511 34 30.25 34C30.4489 34 30.6397 33.921 30.7803 33.7803C30.921 33.6397 31 33.4489 31 33.25V25.75C31 25.5511 30.921 25.3603 30.7803 25.2197C30.6397 25.079 30.4489 25 30.25 25Z" fill="white"/>
</svg>
