<svg width="48" height="48" viewBox="0 0 48 48" fill="none" xmlns="http://www.w3.org/2000/svg">
<rect width="48" height="48" rx="24" fill="#B8A7F1"/>
<path d="M22.5899 18.735C22.7024 18.2306 22.6162 18.4706 21.8906 17.4094C21.2381 16.4569 21.3731 15.1031 20.6006 14.43C20.1262 14.0175 19.5318 13.5544 17.3174 14.6681C16.5487 15.0544 15.0131 16.3275 13.2731 16.9106C11.8724 17.3794 12.6487 17.9456 12.9468 18.0506C14.0081 18.4238 15.4124 17.6175 15.4124 17.6175C15.4124 17.6175 13.3987 18.9338 14.5818 19.245C15.5418 19.4981 16.7512 18.345 16.7512 18.345C16.7512 18.345 15.5662 19.6013 16.5356 19.9238C17.2012 20.145 18.5231 18.8813 18.5231 18.8813C18.5231 18.8813 17.5987 20.1656 18.0449 20.4375C18.7237 20.85 19.8356 19.7869 19.8356 19.7869C19.8356 19.7869 18.9524 21.0769 19.4137 21.2869C20.1037 21.6019 21.1274 20.7169 21.1274 20.7169C21.1274 20.7169 22.3874 19.6369 22.5899 18.735Z" fill="#E0E0E0"/>
<path d="M18.6898 14.58C18.6898 14.58 17.4823 15.2887 17.0417 15.8587C16.9835 15.9337 16.6217 16.2956 16.9404 16.5037C17.021 16.5562 17.261 16.5225 17.4035 16.4362C18.0523 16.0425 19.1998 15.1087 19.3254 15.1575C19.451 15.2062 18.2998 15.9637 17.9285 16.8806C17.7898 17.2256 18.0598 17.4731 18.7629 17.0587C19.5279 16.6087 20.186 15.8156 20.2967 15.8194C20.2967 15.8194 19.9892 16.3556 19.5954 16.7794C19.1942 17.2125 18.911 17.6531 19.2073 17.7919C19.5804 17.9681 20.3867 17.49 20.3867 17.49C20.3867 17.49 19.8729 18.1125 19.2073 18.2531C18.9729 18.3037 18.7892 18.2719 18.6767 18.1444C18.506 17.9494 18.5717 17.6494 18.5717 17.6494C18.2173 17.79 17.606 18.0187 17.2423 17.7112C16.9592 17.4712 17.3454 16.7681 17.3454 16.7681C17.3454 16.7681 16.661 17.1469 16.271 17.0325C16.0685 16.9725 15.7592 16.68 16.211 16.0594C16.9235 15.09 18.6898 14.58 18.6898 14.58ZM20.1335 21.3994C20.9154 20.3831 21.6973 19.3687 22.4792 18.3525L22.4117 18.06C22.3779 17.9569 22.0704 17.9437 21.6448 18.1894C21.3598 18.3544 20.8367 18.9469 20.501 18.6206C20.2685 18.3956 20.936 17.5912 20.936 17.5912C20.8442 17.5931 20.1035 18.0881 19.9854 18.585C19.8842 19.0069 19.9817 19.5019 20.9342 19.02C20.9623 19.005 20.9923 18.9881 21.0204 18.9712C20.9004 19.1606 20.7917 19.3594 20.6998 19.5619C20.4335 20.1469 20.276 20.7731 20.1335 21.3994Z" fill="#BDBDBD"/>
<path d="M27.2607 14.0869L27.2739 14.0963L27.2607 14.0869Z" fill="url(#paint0_linear_319_816)"/>
<path d="M28.3369 25.2806C26.4525 28.1044 24.8681 31.215 21.2644 32.1675C21.2269 32.1769 21.1875 32.1656 21.1613 32.1375L15.2738 25.6406C15.0994 25.4475 15.1856 25.1419 15.4331 25.0612C17.8538 24.2662 19.365 22.3725 20.7113 20.3531C22.5675 17.5725 24.1575 14.5125 27.6469 13.5094C27.78 13.4587 27.9356 13.4906 28.0369 13.6012C28.8188 14.4637 34.7156 20.0775 34.725 20.0887C34.7288 20.0906 29.7825 23.1131 28.3369 25.2806Z" fill="#66BB6A"/>
<path d="M22.8956 26.5707C22.7681 26.4432 22.6162 26.3794 22.44 26.3813C22.2637 26.3832 22.035 26.4544 21.7519 26.595C21.3675 26.7994 21.0337 26.895 20.7544 26.8857C20.475 26.8744 20.2237 26.7582 20.0025 26.535C19.7756 26.3082 19.6556 26.055 19.6444 25.7775C19.6312 25.5 19.7269 25.2319 19.9312 24.9732L19.5731 24.6132C19.5478 24.5874 19.5337 24.5527 19.5337 24.5166C19.5337 24.4805 19.5478 24.4458 19.5731 24.42L19.6894 24.3038C19.7419 24.2513 19.8281 24.2513 19.8825 24.3038L20.2425 24.6657C20.5069 24.465 20.7862 24.3825 21.0787 24.4163C21.3412 24.4482 21.6 24.5775 21.8531 24.81C21.9019 24.855 21.9019 24.9338 21.855 24.9807L21.6412 25.1944C21.5962 25.2394 21.5231 25.2394 21.4762 25.1963C21.3075 25.05 21.1331 24.9657 20.955 24.9469C20.7469 24.9244 20.5631 24.9919 20.4056 25.1494C20.2406 25.3144 20.1562 25.4832 20.1544 25.6538C20.1525 25.8263 20.2275 25.9894 20.3794 26.1413C20.52 26.2838 20.6794 26.3494 20.8556 26.3419C21.0319 26.3344 21.2587 26.2594 21.54 26.1169C21.8212 25.9744 22.0594 25.8863 22.2619 25.8507C22.4625 25.815 22.6462 25.8244 22.8112 25.8769C22.9762 25.9313 23.1319 26.0307 23.2781 26.1769C23.5106 26.4113 23.6287 26.67 23.6306 26.9532C23.6325 27.2363 23.52 27.5175 23.2912 27.7969L23.5912 28.0969C23.6437 28.1494 23.6437 28.2357 23.5912 28.29L23.4769 28.4044C23.4244 28.4569 23.3381 28.4569 23.2837 28.4044L22.9837 28.1044C22.7025 28.3369 22.4081 28.4475 22.1025 28.4325C21.8306 28.4194 21.57 28.3032 21.3225 28.0838C21.3106 28.073 21.3011 28.0599 21.2945 28.0453C21.2879 28.0307 21.2844 28.0149 21.2843 27.9989C21.2841 27.9829 21.2872 27.967 21.2935 27.9522C21.2997 27.9375 21.309 27.9242 21.3206 27.9132L21.5381 27.6975C21.5812 27.6544 21.6506 27.6507 21.6975 27.69C21.8644 27.8344 22.0369 27.9075 22.215 27.9113C22.4194 27.915 22.6144 27.8232 22.8 27.6375C22.9819 27.4575 23.0812 27.27 23.0981 27.0807C23.1112 26.8913 23.0456 26.7207 22.8956 26.5707Z" fill="white"/>
<path d="M23.3754 27.8887L22.9817 28.1081L19.9386 24.9844L19.8354 24.8794L20.2423 24.6675L23.2854 27.7987L23.3754 27.8887Z" fill="white"/>
<path opacity="0.5" d="M26.2277 23.2444C27.7209 23.2444 28.9314 22.0339 28.9314 20.5406C28.9314 19.0474 27.7209 17.8369 26.2277 17.8369C24.7344 17.8369 23.5239 19.0474 23.5239 20.5406C23.5239 22.0339 24.7344 23.2444 26.2277 23.2444Z" fill="#2E7D32"/>
<path d="M29.2799 26.7038C28.3143 28.1513 26.923 30.9132 25.0068 32.4319C23.248 33.8269 21.0299 34.515 21.0299 34.515L14.9268 27.3675L15.1799 25.4063L21.1649 32.1394C21.1893 32.1657 21.2268 32.1788 21.2624 32.1694C24.868 31.2169 26.4524 28.1063 28.3368 25.2825C29.7824 23.115 31.9443 20.805 34.7268 20.0925C34.948 20.3363 34.8505 22.38 34.6086 22.4607C32.143 23.2782 30.6299 24.6769 29.2799 26.7038Z" fill="#2E7D32"/>
<path d="M26.7842 27.66L27.3504 29.7506C27.3504 29.7506 29.0754 27.2269 29.3548 26.6156L28.7286 24.7313C27.8923 25.7719 26.7842 27.66 26.7842 27.66Z" fill="#FFC06C"/>
<path d="M26.6382 15.1894C26.7826 15.3975 27.0357 15.6131 27.4426 15.7387C27.587 15.7837 27.7388 15.8062 27.8907 15.8062C28.2132 15.8062 28.4832 15.7069 28.6651 15.615C29.1207 16.0725 29.6907 16.6294 30.242 17.1694C30.782 17.6981 31.337 18.2419 31.7888 18.6937C31.6426 18.9169 31.5263 19.2544 31.5751 19.71C31.5976 19.92 31.7457 20.1337 31.9032 20.3081C30.9057 20.9494 28.9913 22.3744 27.0282 24.8869C26.6138 25.4175 26.2088 26.0062 25.8188 26.5744C24.8476 27.9881 23.8445 29.4469 22.5095 30.3394C22.352 30.0825 22.0613 29.7712 21.542 29.6419C21.4163 29.61 21.2926 29.595 21.1745 29.595C20.8407 29.595 20.5782 29.7187 20.3907 29.865L17.5595 26.61C17.7976 26.4244 18.0207 26.1075 18.0432 25.6181C18.0545 25.3894 17.9326 25.1812 17.7938 25.0237C19.1738 24.0019 20.6307 22.3725 21.4145 21.2025C21.5288 21.0319 21.647 20.8537 21.7688 20.67C22.9951 18.8194 24.6563 16.3219 26.6382 15.1894ZM26.7863 14.7506C24.4013 15.9319 22.502 19.0087 21.1501 21.0225C20.2651 22.3406 18.6657 24.06 17.2876 24.9881C17.2876 24.9881 17.7395 25.3087 17.7245 25.5994C17.687 26.3794 17.0532 26.5106 17.0532 26.5106L20.3813 30.3356C20.3813 30.3356 20.6251 29.9081 21.1726 29.9081C21.2607 29.9081 21.3582 29.9194 21.4632 29.9456C22.217 30.1331 22.3688 30.7969 22.3688 30.7969C24.4951 29.5594 25.7795 26.9962 27.2757 25.0781C29.3063 22.4775 31.3257 21.0037 32.4188 20.3569C32.4188 20.3569 31.9163 19.95 31.8882 19.6725C31.8113 18.9431 32.2238 18.6806 32.2238 18.6806C31.2582 17.7037 29.672 16.1831 28.712 15.21C28.712 15.21 28.3632 15.4837 27.8888 15.4837C27.7763 15.4837 27.6563 15.4687 27.5345 15.4312C26.8445 15.2231 26.7863 14.7506 26.7863 14.7506Z" fill="#2E7D32"/>
<path d="M22.0915 18.2475L20.2671 21.0056L26.7846 27.66C26.7846 27.66 27.8496 25.9762 28.7271 24.7312L22.0915 18.2475Z" fill="#FFECB3"/>
<path opacity="0.68" d="M28.9915 25.5225C28.9915 25.5225 27.7052 26.1769 27.3546 28.1719C27.2215 28.9256 27.3527 29.7506 27.3527 29.7506L28.414 28.1175L29.1733 25.8469L28.9915 25.5225Z" fill="#D69136"/>
<path d="M28.6218 25.9556C28.9949 25.5975 29.1186 25.4869 30.2849 25.4025C31.4361 25.3181 31.9649 24.8137 33.4199 25.1156C34.0349 25.2431 35.0099 25.8056 34.7624 28.0481C34.6686 28.9031 34.6911 30.8794 35.0943 32.67C35.4186 34.11 34.5318 33.7406 34.288 33.54C33.418 32.8256 33.3805 31.2075 33.3805 31.2075C33.3805 31.2075 33.298 33.6112 32.4186 32.7619C31.7061 32.0719 32.0643 30.4406 32.0643 30.4406C32.0643 30.4406 31.603 32.1056 30.8249 31.4419C30.2905 30.9862 30.688 29.2012 30.688 29.2012C30.688 29.2012 30.0674 30.6581 29.6061 30.4162C28.9011 30.0487 29.2349 28.5469 29.2349 28.5469C29.2349 28.5469 28.5899 29.97 28.1699 29.6831C27.5436 29.2556 27.7705 27.9225 27.7705 27.9225C27.7705 27.9225 27.9543 26.595 28.6218 25.9556Z" fill="#E0E0E0"/>
<path d="M34.1889 26.865C34.1889 26.865 34.2789 28.0238 34.1983 28.7157C34.1477 29.145 34.1252 29.5388 33.7314 29.4807C33.6358 29.4657 33.4127 29.28 33.3733 28.5657C33.3321 27.8082 33.4896 26.8069 33.3789 26.7319C33.2683 26.655 33.2627 27.9694 32.7152 28.7925C32.5089 29.1019 32.1621 29.1357 32.1077 28.32C32.0477 27.4332 32.5071 26.3832 32.4414 26.2932C32.4414 26.2932 32.0533 26.7713 31.8283 27.4482C31.6033 28.125 31.5039 28.4438 31.2396 28.2488C30.7652 27.9 31.4608 26.5107 31.4608 26.5107C31.4608 26.5107 30.9508 26.9663 30.7296 27.6038C30.5889 28.0088 30.6658 28.6744 31.0258 28.8432C31.4496 29.0419 31.6971 28.6875 31.6971 28.6875C31.6971 28.6875 31.7871 29.8219 32.3402 29.7975C32.8708 29.7732 33.0058 29.175 33.0058 29.175C33.0058 29.175 32.9833 29.7525 33.5196 30.1482C33.7802 30.3413 34.3858 30.3732 34.4608 29.6082C34.5827 28.3669 34.1889 26.865 34.1889 26.865ZM29.8258 26.4582C29.7114 26.43 29.5464 26.9457 29.3402 27.2363C29.2614 27.345 29.0927 27.5682 28.8339 27.5494C28.5752 27.5307 28.7796 26.7694 28.7196 26.8107C28.6596 26.8519 28.4177 27.2588 28.5133 27.7313C28.5396 27.8625 28.6727 28.0182 28.8039 28.0388C29.2952 28.1175 29.5108 27.5138 29.5108 27.5138C29.5108 27.5138 29.4377 28.2357 29.9233 28.3107C30.5102 28.4007 30.6302 27.4763 30.5777 27.4425C30.5252 27.4088 30.3358 28.0238 29.9177 27.7613C29.5746 27.5438 29.9402 26.4882 29.8258 26.4582Z" fill="#BDBDBD"/>
<path d="M14.9268 27.3656L21.0074 34.4887C21.0074 34.4887 21.2793 34.0856 21.3411 33.4575C21.3955 32.91 21.2043 32.1825 21.2043 32.1825L15.1799 25.4044L14.9268 27.3656Z" fill="#206022"/>
<defs>
<linearGradient id="paint0_linear_319_816" x1="27.2676" y1="14.0919" x2="27.2676" y2="14.0919" gradientUnits="userSpaceOnUse">
<stop stop-color="#43A047"/>
<stop offset="0.999" stop-color="#66BB6A"/>
</linearGradient>
</defs>
</svg>
