<svg width="16" height="16" viewBox="0 0 16 16" fill="none" xmlns="http://www.w3.org/2000/svg">
<path fill-rule="evenodd" clip-rule="evenodd" d="M7.99984 0.666687C3.94984 0.666687 0.666504 3.95002 0.666504 8.00002C0.666504 12.05 3.94984 15.3334 7.99984 15.3334C12.0498 15.3334 15.3332 12.05 15.3332 8.00002C15.3332 3.95002 12.0498 0.666687 7.99984 0.666687ZM7.6665 4.00002C7.48969 4.00002 7.32012 4.07026 7.1951 4.19528C7.07008 4.32031 6.99984 4.48988 6.99984 4.66669C6.99984 4.8435 7.07008 5.01307 7.1951 5.13809C7.32012 5.26312 7.48969 5.33335 7.6665 5.33335H7.99984C8.17665 5.33335 8.34622 5.26312 8.47124 5.13809C8.59627 5.01307 8.6665 4.8435 8.6665 4.66669C8.6665 4.48988 8.59627 4.32031 8.47124 4.19528C8.34622 4.07026 8.17665 4.00002 7.99984 4.00002H7.6665ZM6.6665 6.66669C6.48969 6.66669 6.32012 6.73692 6.1951 6.86195C6.07008 6.98697 5.99984 7.15654 5.99984 7.33335C5.99984 7.51016 6.07008 7.67973 6.1951 7.80476C6.32012 7.92978 6.48969 8.00002 6.6665 8.00002H7.33317V10H6.6665C6.48969 10 6.32012 10.0703 6.1951 10.1953C6.07008 10.3203 5.99984 10.4899 5.99984 10.6667C5.99984 10.8435 6.07008 11.0131 6.1951 11.1381C6.32012 11.2631 6.48969 11.3334 6.6665 11.3334H9.33317C9.50998 11.3334 9.67955 11.2631 9.80457 11.1381C9.9296 11.0131 9.99984 10.8435 9.99984 10.6667C9.99984 10.4899 9.9296 10.3203 9.80457 10.1953C9.67955 10.0703 9.50998 10 9.33317 10H8.6665V7.33335C8.6665 7.15654 8.59627 6.98697 8.47124 6.86195C8.34622 6.73692 8.17665 6.66669 7.99984 6.66669H6.6665Z" fill="#B1B1B1"/>
</svg>
