<svg width="21" height="16" viewBox="0 0 21 16" fill="none" xmlns="http://www.w3.org/2000/svg">
<path d="M4.33301 16C3.23301 16 2.29134 15.6083 1.50801 14.825C0.724674 14.0417 0.333008 13.1 0.333008 12V4C0.333008 2.9 0.724674 1.95833 1.50801 1.175C2.29134 0.391667 3.23301 0 4.33301 0H16.333C17.433 0 18.3747 0.391667 19.158 1.175C19.9413 1.95833 20.333 2.9 20.333 4V12C20.333 13.1 19.9413 14.0417 19.158 14.825C18.3747 15.6083 17.433 16 16.333 16H4.33301ZM4.33301 4H16.333C16.6997 4 17.0497 4.04167 17.383 4.125C17.7163 4.20833 18.033 4.34167 18.333 4.525V4C18.333 3.45 18.137 2.979 17.745 2.587C17.353 2.195 16.8823 1.99933 16.333 2H4.33301C3.78301 2 3.31201 2.196 2.92001 2.588C2.52801 2.98 2.33234 3.45067 2.33301 4V4.525C2.63301 4.34167 2.94967 4.20833 3.28301 4.125C3.61634 4.04167 3.96634 4 4.33301 4ZM2.48301 7.25L13.608 9.95C13.758 9.98333 13.908 9.98333 14.058 9.95C14.208 9.91667 14.3497 9.85 14.483 9.75L17.958 6.85C17.7747 6.6 17.5413 6.39567 17.258 6.237C16.9747 6.07833 16.6663 5.99933 16.333 6H4.33301C3.89967 6 3.52067 6.11267 3.19601 6.338C2.87134 6.56333 2.63367 6.86733 2.48301 7.25Z" fill="black"/>
</svg>
