<svg width="348" height="56" viewBox="0 0 348 56" fill="none" xmlns="http://www.w3.org/2000/svg">
<rect x="0.5" y="0.5" width="347" height="55" rx="27.5" fill="#2490EB"/>
<rect x="0.5" y="0.5" width="347" height="55" rx="27.5" stroke="white"/>
<path d="M20.736 34.16C19.968 34.16 19.2853 34.0533 18.688 33.84C18.0907 33.6267 17.52 33.2747 16.976 32.784C16.8587 32.6987 16.768 32.5973 16.704 32.48C16.6507 32.352 16.624 32.224 16.624 32.096C16.624 31.8933 16.6987 31.712 16.848 31.552C16.9973 31.392 17.184 31.312 17.408 31.312C17.5787 31.312 17.7387 31.3707 17.888 31.488C18.2933 31.8613 18.7147 32.144 19.152 32.336C19.6 32.528 20.1227 32.624 20.72 32.624C21.1467 32.624 21.536 32.5547 21.888 32.416C22.2507 32.2773 22.5387 32.0907 22.752 31.856C22.9653 31.6213 23.072 31.3493 23.072 31.04C23.072 30.656 22.96 30.3413 22.736 30.096C22.5227 29.84 22.208 29.632 21.792 29.472C21.3867 29.3013 20.896 29.1573 20.32 29.04C19.7867 28.944 19.3067 28.8107 18.88 28.64C18.464 28.4693 18.1067 28.256 17.808 28C17.5093 27.7333 17.28 27.4187 17.12 27.056C16.96 26.6933 16.88 26.272 16.88 25.792C16.88 25.1413 17.0507 24.5813 17.392 24.112C17.7333 23.6427 18.1973 23.28 18.784 23.024C19.3707 22.768 20.032 22.64 20.768 22.64C21.44 22.64 22.0693 22.7467 22.656 22.96C23.2427 23.1627 23.7173 23.44 24.08 23.792C24.336 24.016 24.464 24.256 24.464 24.512C24.464 24.704 24.384 24.8853 24.224 25.056C24.0747 25.216 23.8987 25.296 23.696 25.296C23.5467 25.296 23.4187 25.2533 23.312 25.168C23.1413 24.9867 22.912 24.8267 22.624 24.688C22.336 24.5387 22.0267 24.416 21.696 24.32C21.376 24.224 21.0667 24.176 20.768 24.176C20.288 24.176 19.8773 24.2453 19.536 24.384C19.1947 24.512 18.9333 24.6933 18.752 24.928C18.5707 25.152 18.48 25.4187 18.48 25.728C18.48 26.0907 18.5813 26.3893 18.784 26.624C18.9973 26.8587 19.2907 27.0507 19.664 27.2C20.0373 27.3387 20.464 27.4667 20.944 27.584C21.5307 27.712 22.0533 27.856 22.512 28.016C22.9813 28.176 23.376 28.384 23.696 28.64C24.016 28.8853 24.2613 29.1947 24.432 29.568C24.6027 29.9413 24.688 30.4053 24.688 30.96C24.688 31.6 24.5067 32.16 24.144 32.64C23.7813 33.12 23.3013 33.4933 22.704 33.76C22.1173 34.0267 21.4613 34.16 20.736 34.16ZM27.0074 25.68H30.7674C30.9807 25.68 31.1567 25.7547 31.2954 25.904C31.4447 26.0427 31.5194 26.2187 31.5194 26.432C31.5194 26.6347 31.4447 26.8053 31.2954 26.944C31.1567 27.0827 30.9807 27.152 30.7674 27.152H27.0074C26.794 27.152 26.6127 27.0827 26.4634 26.944C26.3247 26.7947 26.2554 26.6187 26.2554 26.416C26.2554 26.2027 26.3247 26.0267 26.4634 25.888C26.6127 25.7493 26.794 25.68 27.0074 25.68ZM28.6874 23.6C28.922 23.6 29.114 23.68 29.2634 23.84C29.4127 23.9893 29.4874 24.1813 29.4874 24.416V31.84C29.4874 32.032 29.5194 32.1867 29.5834 32.304C29.6474 32.4213 29.7327 32.5013 29.8394 32.544C29.9567 32.5867 30.074 32.608 30.1914 32.608C30.3087 32.608 30.41 32.5867 30.4954 32.544C30.5914 32.5013 30.7034 32.48 30.8314 32.48C30.9594 32.48 31.0767 32.5387 31.1834 32.656C31.29 32.7733 31.3434 32.9333 31.3434 33.136C31.3434 33.392 31.2047 33.6 30.9274 33.76C30.65 33.92 30.3514 34 30.0314 34C29.85 34 29.6367 33.984 29.3914 33.952C29.146 33.92 28.906 33.84 28.6714 33.712C28.4474 33.584 28.2607 33.3813 28.1114 33.104C27.962 32.816 27.8874 32.416 27.8874 31.904V24.416C27.8874 24.1813 27.962 23.9893 28.1114 23.84C28.2714 23.68 28.4634 23.6 28.6874 23.6ZM40.8273 25.456C41.0619 25.456 41.2539 25.536 41.4033 25.696C41.5526 25.8453 41.6273 26.0373 41.6273 26.272V33.184C41.6273 33.4187 41.5526 33.616 41.4033 33.776C41.2539 33.9253 41.0619 34 40.8273 34C40.6033 34 40.4113 33.9253 40.2513 33.776C40.1019 33.616 40.0273 33.4187 40.0273 33.184V32.032L40.3633 32.08C40.3633 32.272 40.2833 32.4853 40.1233 32.72C39.9739 32.9547 39.7659 33.184 39.4993 33.408C39.2326 33.6213 38.9179 33.8027 38.5553 33.952C38.1926 34.0907 37.8033 34.16 37.3873 34.16C36.6513 34.16 35.9899 33.9733 35.4033 33.6C34.8166 33.216 34.3526 32.6933 34.0113 32.032C33.6699 31.3707 33.4993 30.6187 33.4993 29.776C33.4993 28.912 33.6699 28.1547 34.0113 27.504C34.3526 26.8427 34.8113 26.3253 35.3873 25.952C35.9739 25.5787 36.6246 25.392 37.3393 25.392C37.7979 25.392 38.2193 25.4667 38.6033 25.616C38.9979 25.7653 39.3393 25.9573 39.6273 26.192C39.9153 26.4267 40.1339 26.6773 40.2833 26.944C40.4433 27.2 40.5233 27.4453 40.5233 27.68L40.0273 27.728V26.272C40.0273 26.048 40.1019 25.856 40.2513 25.696C40.4113 25.536 40.6033 25.456 40.8273 25.456ZM37.5633 32.688C38.0646 32.688 38.5073 32.56 38.8913 32.304C39.2753 32.048 39.5739 31.7013 39.7873 31.264C40.0006 30.816 40.1073 30.32 40.1073 29.776C40.1073 29.2213 40.0006 28.7253 39.7873 28.288C39.5739 27.8507 39.2753 27.504 38.8913 27.248C38.5073 26.992 38.0646 26.864 37.5633 26.864C37.0726 26.864 36.6353 26.992 36.2513 27.248C35.8779 27.504 35.5793 27.8507 35.3553 28.288C35.1419 28.7253 35.0353 29.2213 35.0353 29.776C35.0353 30.32 35.1419 30.816 35.3553 31.264C35.5793 31.7013 35.8779 32.048 36.2513 32.304C36.6353 32.56 37.0726 32.688 37.5633 32.688ZM45.3088 34C45.0741 34 44.8821 33.9253 44.7328 33.776C44.5834 33.616 44.5088 33.4187 44.5088 33.184V26.4C44.5088 26.1653 44.5834 25.9733 44.7328 25.824C44.8821 25.664 45.0741 25.584 45.3088 25.584C45.5328 25.584 45.7194 25.664 45.8688 25.824C46.0288 25.9733 46.1088 26.1653 46.1088 26.4V28.192L45.9488 27.504C46.0341 27.2053 46.1621 26.928 46.3328 26.672C46.5141 26.416 46.7274 26.192 46.9728 26C47.2181 25.808 47.4901 25.6587 47.7888 25.552C48.0981 25.4453 48.4181 25.392 48.7488 25.392C49.0261 25.392 49.2661 25.4667 49.4688 25.616C49.6714 25.7653 49.7728 25.952 49.7728 26.176C49.7728 26.464 49.6981 26.6773 49.5488 26.816C49.3994 26.944 49.2341 27.008 49.0528 27.008C48.8928 27.008 48.7381 26.976 48.5888 26.912C48.4394 26.8373 48.2634 26.8 48.0608 26.8C47.8368 26.8 47.6074 26.8587 47.3728 26.976C47.1381 27.0933 46.9248 27.2693 46.7328 27.504C46.5408 27.728 46.3861 27.9947 46.2688 28.304C46.1621 28.6133 46.1088 28.96 46.1088 29.344V33.184C46.1088 33.4187 46.0288 33.616 45.8688 33.776C45.7194 33.9253 45.5328 34 45.3088 34ZM51.7243 25.68H55.4843C55.6976 25.68 55.8736 25.7547 56.0123 25.904C56.1616 26.0427 56.2363 26.2187 56.2363 26.432C56.2363 26.6347 56.1616 26.8053 56.0123 26.944C55.8736 27.0827 55.6976 27.152 55.4843 27.152H51.7243C51.5109 27.152 51.3296 27.0827 51.1803 26.944C51.0416 26.7947 50.9723 26.6187 50.9723 26.416C50.9723 26.2027 51.0416 26.0267 51.1803 25.888C51.3296 25.7493 51.5109 25.68 51.7243 25.68ZM53.4043 23.6C53.6389 23.6 53.8309 23.68 53.9803 23.84C54.1296 23.9893 54.2043 24.1813 54.2043 24.416V31.84C54.2043 32.032 54.2363 32.1867 54.3003 32.304C54.3643 32.4213 54.4496 32.5013 54.5563 32.544C54.6736 32.5867 54.7909 32.608 54.9083 32.608C55.0256 32.608 55.1269 32.5867 55.2123 32.544C55.3083 32.5013 55.4203 32.48 55.5483 32.48C55.6763 32.48 55.7936 32.5387 55.9003 32.656C56.0069 32.7733 56.0603 32.9333 56.0603 33.136C56.0603 33.392 55.9216 33.6 55.6443 33.76C55.3669 33.92 55.0683 34 54.7483 34C54.5669 34 54.3536 33.984 54.1083 33.952C53.8629 33.92 53.6229 33.84 53.3883 33.712C53.1643 33.584 52.9776 33.3813 52.8283 33.104C52.6789 32.816 52.6043 32.416 52.6043 31.904V24.416C52.6043 24.1813 52.6789 23.9893 52.8283 23.84C52.9883 23.68 53.1803 23.6 53.4043 23.6ZM64.8773 34C64.6213 34 64.3973 33.9253 64.2053 33.776C64.0133 33.616 63.9173 33.4187 63.9173 33.184V23.616C63.9173 23.3813 63.9973 23.1893 64.1573 23.04C64.3173 22.88 64.5093 22.8 64.7333 22.8H69.2453C69.8213 22.8 70.3493 22.944 70.8293 23.232C71.3093 23.5093 71.6933 23.8987 71.9813 24.4C72.2799 24.8907 72.4293 25.456 72.4293 26.096C72.4293 26.5227 72.3439 26.9333 72.1733 27.328C72.0026 27.712 71.7733 28.0533 71.4853 28.352C71.1973 28.6507 70.8719 28.8747 70.5093 29.024L70.3333 28.72C70.6639 28.8373 70.9519 29.008 71.1973 29.232C71.4426 29.4453 71.6346 29.7013 71.7733 30C71.9226 30.288 72.0026 30.6187 72.0133 30.992C72.0453 31.3227 72.0719 31.6 72.0933 31.824C72.1253 32.0373 72.1679 32.2133 72.2213 32.352C72.2746 32.4907 72.3706 32.5973 72.5093 32.672C72.7013 32.7787 72.8186 32.9387 72.8613 33.152C72.9146 33.3653 72.8719 33.5573 72.7333 33.728C72.6373 33.856 72.5146 33.9413 72.3653 33.984C72.2266 34.016 72.0826 34.0213 71.9333 34C71.7839 33.968 71.6559 33.9253 71.5493 33.872C71.3786 33.7653 71.2026 33.616 71.0213 33.424C70.8506 33.2213 70.7119 32.944 70.6053 32.592C70.4986 32.24 70.4453 31.776 70.4453 31.2C70.4453 30.9333 70.4026 30.704 70.3173 30.512C70.2319 30.32 70.1146 30.1653 69.9653 30.048C69.8159 29.92 69.6399 29.8293 69.4373 29.776C69.2346 29.712 69.0106 29.68 68.7653 29.68H65.3733L65.5973 29.36V33.184C65.5973 33.4187 65.5333 33.616 65.4053 33.776C65.2773 33.9253 65.1013 34 64.8773 34ZM65.3893 28.288H69.2133C69.4586 28.2773 69.6933 28.1813 69.9173 28C70.1519 27.808 70.3386 27.552 70.4773 27.232C70.6266 26.912 70.7013 26.5493 70.7013 26.144C70.7013 25.632 70.5466 25.2053 70.2373 24.864C69.9386 24.512 69.5813 24.336 69.1653 24.336H65.4213L65.5973 23.92V28.624L65.3893 28.288ZM79.1137 34.16C78.2284 34.16 77.4604 33.9787 76.8097 33.616C76.1591 33.2427 75.6524 32.736 75.2897 32.096C74.9377 31.4453 74.7617 30.704 74.7617 29.872C74.7617 28.9333 74.9484 28.1333 75.3217 27.472C75.7057 26.8 76.2017 26.288 76.8097 25.936C77.4177 25.5733 78.0631 25.392 78.7457 25.392C79.2684 25.392 79.7644 25.4987 80.2337 25.712C80.7031 25.9147 81.1191 26.2027 81.4818 26.576C81.8551 26.9387 82.1484 27.3707 82.3617 27.872C82.5751 28.3627 82.6871 28.9013 82.6978 29.488C82.6871 29.7013 82.6018 29.8773 82.4417 30.016C82.2817 30.1547 82.0951 30.224 81.8818 30.224H75.6577L75.2737 28.864H81.2898L80.9857 29.152V28.752C80.9644 28.3787 80.8417 28.0533 80.6177 27.776C80.3937 27.488 80.1164 27.2693 79.7857 27.12C79.4551 26.96 79.1084 26.88 78.7457 26.88C78.4257 26.88 78.1164 26.9333 77.8177 27.04C77.5297 27.136 77.2684 27.296 77.0337 27.52C76.8097 27.744 76.6284 28.0427 76.4897 28.416C76.3617 28.7787 76.2977 29.232 76.2977 29.776C76.2977 30.3627 76.4204 30.8747 76.6657 31.312C76.9111 31.7493 77.2417 32.0907 77.6577 32.336C78.0737 32.5707 78.5324 32.688 79.0337 32.688C79.4284 32.688 79.7537 32.6507 80.0097 32.576C80.2657 32.4907 80.4791 32.3893 80.6497 32.272C80.8204 32.1547 80.9697 32.0427 81.0977 31.936C81.2577 31.84 81.4177 31.792 81.5777 31.792C81.7697 31.792 81.9297 31.8613 82.0577 32C82.1858 32.128 82.2498 32.2827 82.2498 32.464C82.2498 32.6987 82.1324 32.912 81.8977 33.104C81.6097 33.3813 81.2097 33.6267 80.6978 33.84C80.1964 34.0533 79.6684 34.16 79.1137 34.16ZM89.0663 22.176C89.2689 22.176 89.4769 22.2027 89.6903 22.256C89.9036 22.3093 90.0796 22.4 90.2183 22.528C90.3676 22.6453 90.4423 22.8107 90.4423 23.024C90.4423 23.2373 90.3783 23.4133 90.2503 23.552C90.1223 23.68 89.9729 23.744 89.8023 23.744C89.6956 23.744 89.5516 23.7227 89.3703 23.68C89.1889 23.6267 89.0076 23.6 88.8263 23.6C88.5809 23.6 88.3836 23.6587 88.2343 23.776C88.0849 23.8827 87.9783 24.0213 87.9143 24.192C87.8503 24.352 87.8183 24.512 87.8183 24.672V33.184C87.8183 33.4187 87.7383 33.616 87.5783 33.776C87.4289 33.9253 87.2423 34 87.0183 34C86.7836 34 86.5916 33.9253 86.4423 33.776C86.2929 33.616 86.2183 33.4187 86.2183 33.184V24.688C86.2183 23.952 86.4583 23.3493 86.9383 22.88C87.4289 22.4107 88.1383 22.176 89.0663 22.176ZM89.3863 25.728C89.5996 25.728 89.7756 25.7973 89.9143 25.936C90.0529 26.0747 90.1223 26.2507 90.1223 26.464C90.1223 26.6773 90.0529 26.8533 89.9143 26.992C89.7756 27.1307 89.5996 27.2 89.3863 27.2H85.2423C85.0396 27.2 84.8636 27.1307 84.7143 26.992C84.5756 26.8533 84.5063 26.6773 84.5063 26.464C84.5063 26.2507 84.5756 26.0747 84.7143 25.936C84.8636 25.7973 85.0396 25.728 85.2423 25.728H89.3863ZM95.7688 34.16C94.8834 34.16 94.1154 33.9787 93.4648 33.616C92.8141 33.2427 92.3074 32.736 91.9448 32.096C91.5928 31.4453 91.4168 30.704 91.4168 29.872C91.4168 28.9333 91.6034 28.1333 91.9768 27.472C92.3608 26.8 92.8568 26.288 93.4648 25.936C94.0728 25.5733 94.7181 25.392 95.4008 25.392C95.9234 25.392 96.4194 25.4987 96.8888 25.712C97.3581 25.9147 97.7741 26.2027 98.1368 26.576C98.5101 26.9387 98.8034 27.3707 99.0168 27.872C99.2301 28.3627 99.3421 28.9013 99.3528 29.488C99.3421 29.7013 99.2568 29.8773 99.0968 30.016C98.9368 30.1547 98.7501 30.224 98.5368 30.224H92.3128L91.9288 28.864H97.9448L97.6408 29.152V28.752C97.6194 28.3787 97.4968 28.0533 97.2728 27.776C97.0488 27.488 96.7714 27.2693 96.4408 27.12C96.1101 26.96 95.7634 26.88 95.4008 26.88C95.0808 26.88 94.7714 26.9333 94.4728 27.04C94.1848 27.136 93.9234 27.296 93.6888 27.52C93.4648 27.744 93.2834 28.0427 93.1448 28.416C93.0168 28.7787 92.9528 29.232 92.9528 29.776C92.9528 30.3627 93.0754 30.8747 93.3208 31.312C93.5661 31.7493 93.8968 32.0907 94.3128 32.336C94.7288 32.5707 95.1874 32.688 95.6888 32.688C96.0834 32.688 96.4088 32.6507 96.6648 32.576C96.9208 32.4907 97.1341 32.3893 97.3048 32.272C97.4754 32.1547 97.6248 32.0427 97.7528 31.936C97.9128 31.84 98.0728 31.792 98.2328 31.792C98.4248 31.792 98.5848 31.8613 98.7128 32C98.8408 32.128 98.9048 32.2827 98.9048 32.464C98.9048 32.6987 98.7874 32.912 98.5528 33.104C98.2648 33.3813 97.8648 33.6267 97.3528 33.84C96.8514 34.0533 96.3234 34.16 95.7688 34.16ZM102.601 34C102.367 34 102.175 33.9253 102.025 33.776C101.876 33.616 101.801 33.4187 101.801 33.184V26.4C101.801 26.1653 101.876 25.9733 102.025 25.824C102.175 25.664 102.367 25.584 102.601 25.584C102.825 25.584 103.012 25.664 103.161 25.824C103.321 25.9733 103.401 26.1653 103.401 26.4V28.192L103.241 27.504C103.327 27.2053 103.455 26.928 103.625 26.672C103.807 26.416 104.02 26.192 104.265 26C104.511 25.808 104.783 25.6587 105.081 25.552C105.391 25.4453 105.711 25.392 106.041 25.392C106.319 25.392 106.559 25.4667 106.761 25.616C106.964 25.7653 107.065 25.952 107.065 26.176C107.065 26.464 106.991 26.6773 106.841 26.816C106.692 26.944 106.527 27.008 106.345 27.008C106.185 27.008 106.031 26.976 105.881 26.912C105.732 26.8373 105.556 26.8 105.353 26.8C105.129 26.8 104.9 26.8587 104.665 26.976C104.431 27.0933 104.217 27.2693 104.025 27.504C103.833 27.728 103.679 27.9947 103.561 28.304C103.455 28.6133 103.401 28.96 103.401 29.344V33.184C103.401 33.4187 103.321 33.616 103.161 33.776C103.012 33.9253 102.825 34 102.601 34ZM109.929 34C109.694 34 109.502 33.9253 109.353 33.776C109.203 33.616 109.129 33.4187 109.129 33.184V26.4C109.129 26.1653 109.203 25.9733 109.353 25.824C109.502 25.664 109.694 25.584 109.929 25.584C110.153 25.584 110.339 25.664 110.489 25.824C110.649 25.9733 110.729 26.1653 110.729 26.4V28.192L110.569 27.504C110.654 27.2053 110.782 26.928 110.953 26.672C111.134 26.416 111.347 26.192 111.593 26C111.838 25.808 112.11 25.6587 112.409 25.552C112.718 25.4453 113.038 25.392 113.369 25.392C113.646 25.392 113.886 25.4667 114.089 25.616C114.291 25.7653 114.393 25.952 114.393 26.176C114.393 26.464 114.318 26.6773 114.169 26.816C114.019 26.944 113.854 27.008 113.673 27.008C113.513 27.008 113.358 26.976 113.209 26.912C113.059 26.8373 112.883 26.8 112.681 26.8C112.457 26.8 112.227 26.8587 111.993 26.976C111.758 27.0933 111.545 27.2693 111.353 27.504C111.161 27.728 111.006 27.9947 110.889 28.304C110.782 28.6133 110.729 28.96 110.729 29.344V33.184C110.729 33.4187 110.649 33.616 110.489 33.776C110.339 33.9253 110.153 34 109.929 34ZM117.96 33.184C117.96 33.4187 117.886 33.616 117.736 33.776C117.587 33.9253 117.395 34 117.16 34C116.936 34 116.744 33.9253 116.584 33.776C116.435 33.616 116.36 33.4187 116.36 33.184V26.336C116.36 26.1013 116.435 25.9093 116.584 25.76C116.744 25.6 116.936 25.52 117.16 25.52C117.395 25.52 117.587 25.6 117.736 25.76C117.886 25.9093 117.96 26.1013 117.96 26.336V33.184ZM117.144 24.464C116.835 24.464 116.611 24.4107 116.472 24.304C116.334 24.1867 116.264 23.9947 116.264 23.728V23.472C116.264 23.2053 116.339 23.0187 116.488 22.912C116.638 22.8053 116.862 22.752 117.16 22.752C117.48 22.752 117.71 22.8107 117.848 22.928C117.987 23.0347 118.056 23.216 118.056 23.472V23.728C118.056 24.0053 117.982 24.1973 117.832 24.304C117.694 24.4107 117.464 24.464 117.144 24.464ZM125.089 25.392C125.846 25.392 126.433 25.552 126.849 25.872C127.264 26.1813 127.552 26.6027 127.712 27.136C127.883 27.6587 127.969 28.2453 127.969 28.896V33.184C127.969 33.4187 127.889 33.616 127.729 33.776C127.579 33.9253 127.392 34 127.168 34C126.934 34 126.742 33.9253 126.593 33.776C126.443 33.616 126.369 33.4187 126.369 33.184V28.912C126.369 28.528 126.315 28.1867 126.208 27.888C126.102 27.5787 125.915 27.3333 125.648 27.152C125.393 26.96 125.03 26.864 124.561 26.864C124.123 26.864 123.739 26.96 123.408 27.152C123.078 27.3333 122.816 27.5787 122.624 27.888C122.443 28.1867 122.352 28.528 122.352 28.912V33.184C122.352 33.4187 122.272 33.616 122.112 33.776C121.963 33.9253 121.776 34 121.552 34C121.318 34 121.126 33.9253 120.976 33.776C120.827 33.616 120.752 33.4187 120.752 33.184V26.4C120.752 26.1653 120.827 25.9733 120.976 25.824C121.126 25.664 121.318 25.584 121.552 25.584C121.776 25.584 121.963 25.664 122.112 25.824C122.272 25.9733 122.352 26.1653 122.352 26.4V27.296L122.064 27.456C122.139 27.2213 122.267 26.9867 122.448 26.752C122.64 26.5067 122.87 26.2827 123.136 26.08C123.403 25.8667 123.702 25.7013 124.032 25.584C124.363 25.456 124.715 25.392 125.089 25.392ZM134.334 25.392C134.793 25.392 135.214 25.4667 135.598 25.616C135.982 25.7653 136.313 25.9573 136.59 26.192C136.878 26.416 137.102 26.6507 137.262 26.896C137.422 27.1413 137.502 27.3547 137.502 27.536L137.134 27.552V26.272C137.134 26.048 137.209 25.856 137.358 25.696C137.507 25.536 137.699 25.456 137.934 25.456C138.169 25.456 138.361 25.536 138.51 25.696C138.659 25.8453 138.734 26.0373 138.734 26.272V33.328C138.734 34.2347 138.542 34.9707 138.158 35.536C137.774 36.112 137.262 36.5333 136.622 36.8C135.993 37.0667 135.299 37.2 134.542 37.2C134.275 37.2 133.961 37.1627 133.598 37.088C133.235 37.024 132.899 36.944 132.59 36.848C132.291 36.752 132.083 36.656 131.966 36.56C131.721 36.432 131.555 36.2827 131.47 36.112C131.395 35.9413 131.395 35.7707 131.47 35.6C131.577 35.3653 131.721 35.2213 131.902 35.168C132.083 35.1147 132.291 35.1307 132.526 35.216C132.633 35.248 132.798 35.3067 133.022 35.392C133.246 35.4773 133.497 35.552 133.774 35.616C134.051 35.6907 134.313 35.728 134.558 35.728C135.411 35.728 136.051 35.5307 136.478 35.136C136.915 34.7413 137.134 34.2027 137.134 33.52V32.08L137.31 32.192C137.278 32.416 137.177 32.6453 137.006 32.88C136.846 33.104 136.633 33.312 136.366 33.504C136.099 33.696 135.79 33.856 135.438 33.984C135.097 34.1013 134.745 34.16 134.382 34.16C133.625 34.16 132.947 33.9733 132.35 33.6C131.753 33.216 131.278 32.6987 130.926 32.048C130.574 31.3867 130.398 30.6293 130.398 29.776C130.398 28.9227 130.574 28.1707 130.926 27.52C131.278 26.8587 131.747 26.3413 132.334 25.968C132.931 25.584 133.598 25.392 134.334 25.392ZM134.574 26.864C134.051 26.864 133.593 26.992 133.198 27.248C132.803 27.504 132.494 27.8507 132.27 28.288C132.046 28.7253 131.934 29.2213 131.934 29.776C131.934 30.3307 132.046 30.8267 132.27 31.264C132.494 31.7013 132.803 32.048 133.198 32.304C133.593 32.56 134.051 32.688 134.574 32.688C135.097 32.688 135.555 32.5653 135.95 32.32C136.345 32.064 136.654 31.7173 136.878 31.28C137.102 30.832 137.214 30.3307 137.214 29.776C137.214 29.2213 137.102 28.7253 136.878 28.288C136.654 27.84 136.345 27.4933 135.95 27.248C135.555 26.992 135.097 26.864 134.574 26.864ZM150 34.16C149.243 34.16 148.565 33.9947 147.968 33.664C147.371 33.3227 146.901 32.88 146.56 32.336C146.219 31.792 146.048 31.216 146.048 30.608C146.048 30.096 146.139 29.6213 146.32 29.184C146.512 28.736 146.795 28.3413 147.168 28C147.552 27.6587 148.037 27.376 148.624 27.152L149.68 28.24C148.912 28.4107 148.384 28.6827 148.096 29.056C147.819 29.4293 147.68 29.8667 147.68 30.368C147.68 30.7413 147.771 31.104 147.952 31.456C148.133 31.7973 148.416 32.08 148.8 32.304C149.195 32.528 149.707 32.64 150.336 32.64C150.901 32.64 151.397 32.528 151.824 32.304C152.261 32.0693 152.635 31.7653 152.944 31.392C153.253 31.008 153.504 30.5867 153.696 30.128C153.888 29.6587 154.021 29.1787 154.096 28.688C154.117 28.5387 154.176 28.4267 154.272 28.352C154.368 28.2667 154.528 28.224 154.752 28.224C154.987 28.224 155.168 28.3147 155.296 28.496C155.435 28.6773 155.488 28.896 155.456 29.152C155.36 29.7707 155.179 30.3787 154.912 30.976C154.645 31.5627 154.288 32.1013 153.84 32.592C153.392 33.072 152.848 33.456 152.208 33.744C151.568 34.0213 150.832 34.16 150 34.16ZM155.68 34C155.584 34 155.493 33.9893 155.408 33.968C155.333 33.936 155.275 33.904 155.232 33.872C154.496 33.264 153.813 32.6933 153.184 32.16C152.565 31.6267 151.979 31.0987 151.424 30.576C150.88 30.0427 150.341 29.4773 149.808 28.88C149.435 28.4533 149.093 28.0587 148.784 27.696C148.485 27.3333 148.24 26.976 148.048 26.624C147.867 26.272 147.776 25.8987 147.776 25.504C147.776 24.992 147.909 24.5227 148.176 24.096C148.453 23.6587 148.837 23.3067 149.328 23.04C149.829 22.7733 150.421 22.64 151.104 22.64C151.851 22.64 152.501 22.7733 153.056 23.04C153.621 23.296 154.005 23.6213 154.208 24.016C154.219 24.0267 154.24 24.0853 154.272 24.192C154.315 24.288 154.336 24.4053 154.336 24.544C154.336 24.704 154.272 24.848 154.144 24.976C154.016 25.104 153.845 25.168 153.632 25.168C153.493 25.168 153.381 25.1413 153.296 25.088C153.211 25.0347 153.147 24.9813 153.104 24.928C152.869 24.608 152.592 24.3733 152.272 24.224C151.963 24.0747 151.573 24 151.104 24C150.571 24 150.16 24.1387 149.872 24.416C149.595 24.6933 149.456 25.0347 149.456 25.44C149.456 25.7707 149.563 26.1067 149.776 26.448C150 26.7893 150.256 27.12 150.544 27.44C150.843 27.7493 151.115 28.0373 151.36 28.304C151.723 28.6987 152.117 29.1093 152.544 29.536C152.981 29.952 153.413 30.352 153.84 30.736C154.277 31.12 154.683 31.472 155.056 31.792C155.429 32.112 155.744 32.384 156 32.608C156.117 32.7147 156.203 32.8213 156.256 32.928C156.32 33.0347 156.352 33.1627 156.352 33.312C156.352 33.4293 156.299 33.5733 156.192 33.744C156.085 33.9147 155.915 34 155.68 34ZM164.601 22.8H170.137C170.361 22.8 170.547 22.8747 170.697 23.024C170.857 23.1733 170.937 23.36 170.937 23.584C170.937 23.808 170.857 23.9893 170.697 24.128C170.547 24.2667 170.361 24.336 170.137 24.336H165.305L165.465 24.064V27.648L165.321 27.488H169.417C169.641 27.488 169.827 27.5627 169.977 27.712C170.137 27.8613 170.217 28.0533 170.217 28.288C170.217 28.512 170.137 28.6933 169.977 28.832C169.827 28.9707 169.641 29.04 169.417 29.04H165.353L165.465 28.896V32.592L165.353 32.464H170.137C170.361 32.464 170.547 32.544 170.697 32.704C170.857 32.8533 170.937 33.0293 170.937 33.232C170.937 33.456 170.857 33.6427 170.697 33.792C170.547 33.9307 170.361 34 170.137 34H164.601C164.377 34 164.185 33.9253 164.025 33.776C163.865 33.616 163.785 33.4187 163.785 33.184V23.616C163.785 23.3813 163.865 23.1893 164.025 23.04C164.185 22.88 164.377 22.8 164.601 22.8ZM180.285 25.456C180.52 25.456 180.712 25.536 180.861 25.696C181.011 25.8453 181.085 26.0373 181.085 26.272V33.184C181.085 33.4187 181.011 33.616 180.861 33.776C180.712 33.9253 180.52 34 180.285 34C180.061 34 179.869 33.9253 179.709 33.776C179.56 33.616 179.485 33.4187 179.485 33.184V32.032L179.821 32.08C179.821 32.272 179.741 32.4853 179.581 32.72C179.432 32.9547 179.224 33.184 178.957 33.408C178.691 33.6213 178.376 33.8027 178.013 33.952C177.651 34.0907 177.261 34.16 176.845 34.16C176.109 34.16 175.448 33.9733 174.861 33.6C174.275 33.216 173.811 32.6933 173.469 32.032C173.128 31.3707 172.957 30.6187 172.957 29.776C172.957 28.912 173.128 28.1547 173.469 27.504C173.811 26.8427 174.269 26.3253 174.845 25.952C175.432 25.5787 176.083 25.392 176.797 25.392C177.256 25.392 177.677 25.4667 178.061 25.616C178.456 25.7653 178.797 25.9573 179.085 26.192C179.373 26.4267 179.592 26.6773 179.741 26.944C179.901 27.2 179.981 27.4453 179.981 27.68L179.485 27.728V26.272C179.485 26.048 179.56 25.856 179.709 25.696C179.869 25.536 180.061 25.456 180.285 25.456ZM177.021 32.688C177.523 32.688 177.965 32.56 178.349 32.304C178.733 32.048 179.032 31.7013 179.245 31.264C179.459 30.816 179.565 30.32 179.565 29.776C179.565 29.2213 179.459 28.7253 179.245 28.288C179.032 27.8507 178.733 27.504 178.349 27.248C177.965 26.992 177.523 26.864 177.021 26.864C176.531 26.864 176.093 26.992 175.709 27.248C175.336 27.504 175.037 27.8507 174.813 28.288C174.6 28.7253 174.493 29.2213 174.493 29.776C174.493 30.32 174.6 30.816 174.813 31.264C175.037 31.7013 175.336 32.048 175.709 32.304C176.093 32.56 176.531 32.688 177.021 32.688ZM184.767 34C184.532 34 184.34 33.9253 184.191 33.776C184.042 33.616 183.967 33.4187 183.967 33.184V26.4C183.967 26.1653 184.042 25.9733 184.191 25.824C184.34 25.664 184.532 25.584 184.767 25.584C184.991 25.584 185.178 25.664 185.327 25.824C185.487 25.9733 185.567 26.1653 185.567 26.4V28.192L185.407 27.504C185.492 27.2053 185.62 26.928 185.791 26.672C185.972 26.416 186.186 26.192 186.431 26C186.676 25.808 186.948 25.6587 187.247 25.552C187.556 25.4453 187.876 25.392 188.207 25.392C188.484 25.392 188.724 25.4667 188.927 25.616C189.13 25.7653 189.231 25.952 189.231 26.176C189.231 26.464 189.156 26.6773 189.007 26.816C188.858 26.944 188.692 27.008 188.511 27.008C188.351 27.008 188.196 26.976 188.047 26.912C187.898 26.8373 187.722 26.8 187.519 26.8C187.295 26.8 187.066 26.8587 186.831 26.976C186.596 27.0933 186.383 27.2693 186.191 27.504C185.999 27.728 185.844 27.9947 185.727 28.304C185.62 28.6133 185.567 28.96 185.567 29.344V33.184C185.567 33.4187 185.487 33.616 185.327 33.776C185.178 33.9253 184.991 34 184.767 34ZM195.63 25.392C196.388 25.392 196.974 25.552 197.39 25.872C197.806 26.1813 198.094 26.6027 198.254 27.136C198.425 27.6587 198.51 28.2453 198.51 28.896V33.184C198.51 33.4187 198.43 33.616 198.27 33.776C198.121 33.9253 197.934 34 197.71 34C197.476 34 197.284 33.9253 197.134 33.776C196.985 33.616 196.91 33.4187 196.91 33.184V28.912C196.91 28.528 196.857 28.1867 196.75 27.888C196.644 27.5787 196.457 27.3333 196.19 27.152C195.934 26.96 195.572 26.864 195.102 26.864C194.665 26.864 194.281 26.96 193.95 27.152C193.62 27.3333 193.358 27.5787 193.166 27.888C192.985 28.1867 192.894 28.528 192.894 28.912V33.184C192.894 33.4187 192.814 33.616 192.654 33.776C192.505 33.9253 192.318 34 192.094 34C191.86 34 191.668 33.9253 191.518 33.776C191.369 33.616 191.294 33.4187 191.294 33.184V26.4C191.294 26.1653 191.369 25.9733 191.518 25.824C191.668 25.664 191.86 25.584 192.094 25.584C192.318 25.584 192.505 25.664 192.654 25.824C192.814 25.9733 192.894 26.1653 192.894 26.4V27.296L192.606 27.456C192.681 27.2213 192.809 26.9867 192.99 26.752C193.182 26.5067 193.412 26.2827 193.678 26.08C193.945 25.8667 194.244 25.7013 194.574 25.584C194.905 25.456 195.257 25.392 195.63 25.392Z" fill="white"/>
<rect x="300.5" y="8.5" width="39" height="39" rx="19.5" stroke="white"/>
<path d="M315 33L325 23M325 23H315M325 23V33" stroke="white" stroke-width="2" stroke-linecap="round" stroke-linejoin="round"/>
</svg>
