<svg width="40" height="40" viewBox="0 0 40 40" fill="none" xmlns="http://www.w3.org/2000/svg">
<path opacity="0.25" d="M30.1585 25.0517C29.4502 25 28.5818 25 27.5002 25C24.7502 25 23.3752 25 22.5218 25.855C21.6668 26.7084 21.6668 28.0834 21.6668 30.8334C21.6668 32.7767 21.6668 34.0334 21.9685 34.905C21.3285 34.9684 20.6718 35 20.0002 35C13.5568 35 8.3335 32.0167 8.3335 28.3334C8.3335 24.65 13.5568 21.6667 20.0002 21.6667C24.3552 21.6667 28.1535 23.03 30.1585 25.0517Z" fill="#2490EB"/>
<path d="M20.0002 16.6666C23.6821 16.6666 26.6668 13.6819 26.6668 9.99998C26.6668 6.31808 23.6821 3.33331 20.0002 3.33331C16.3183 3.33331 13.3335 6.31808 13.3335 9.99998C13.3335 13.6819 16.3183 16.6666 20.0002 16.6666Z" fill="#2490EB"/>
<path fill-rule="evenodd" clip-rule="evenodd" d="M27.5002 36.6666C24.7502 36.6666 23.3752 36.6666 22.5218 35.8116C21.6668 34.9583 21.6668 33.5833 21.6668 30.8333C21.6668 28.0833 21.6668 26.7083 22.5218 25.855C23.3752 25 24.7502 25 27.5002 25C30.2502 25 31.6252 25 32.4785 25.855C33.3335 26.7083 33.3335 28.0833 33.3335 30.8333C33.3335 33.5833 33.3335 34.9583 32.4785 35.8116C31.6252 36.6666 30.2502 36.6666 27.5002 36.6666ZM30.7802 29.5766C30.9625 29.3943 31.0649 29.147 31.0649 28.8891C31.0649 28.6313 30.9625 28.384 30.7802 28.2016C30.5978 28.0193 30.3505 27.9169 30.0927 27.9169C29.8348 27.9169 29.5875 28.0193 29.4052 28.2016L26.2052 31.4016L25.5952 30.7933C25.5049 30.703 25.3977 30.6314 25.2797 30.5826C25.1618 30.5337 25.0353 30.5085 24.9077 30.5085C24.78 30.5085 24.6536 30.5337 24.5356 30.5826C24.4176 30.6314 24.3104 30.703 24.2202 30.7933C24.1299 30.8836 24.0583 30.9908 24.0094 31.1087C23.9605 31.2267 23.9354 31.3531 23.9354 31.4808C23.9354 31.6085 23.9605 31.7349 24.0094 31.8529C24.0583 31.9708 24.1299 32.078 24.2202 32.1683L25.5168 33.465C25.6071 33.5553 25.7142 33.627 25.8322 33.6759C25.9502 33.7248 26.0766 33.75 26.2043 33.75C26.332 33.75 26.4585 33.7248 26.5764 33.6759C26.6944 33.627 26.8016 33.5553 26.8918 33.465L30.7802 29.5766Z" fill="#2490EB"/>
</svg>
