<svg width="40" height="40" viewBox="0 0 40 40" fill="none" xmlns="http://www.w3.org/2000/svg">
<path opacity="0.25" d="M32.8618 33.9367C35.2385 32.6417 36.6668 30.9783 36.6668 29.1667C36.6668 27.2467 35.0618 25.4933 32.4235 24.1667C29.3718 22.6333 24.9368 21.6667 20.0002 21.6667C15.0635 21.6667 10.6285 22.6333 7.57683 24.1667C4.9385 25.4933 3.3335 27.2467 3.3335 29.1667C3.3335 31.0867 4.9385 32.84 7.57683 34.1667C10.6285 35.7 15.0635 36.6667 20.0002 36.6667C25.1785 36.6667 29.8035 35.605 32.8618 33.9367Z" fill="#2490EB"/>
<path d="M16.7589 3.42577C15.8993 4.28531 15.4164 5.4511 15.4164 6.66668C15.4164 7.88225 15.8993 9.04804 16.7589 9.90758C17.6184 10.7671 18.7842 11.25 19.9998 11.25C21.2153 11.25 22.3811 10.7671 23.2407 9.90758C24.1002 9.04804 24.5831 7.88225 24.5831 6.66668C24.5831 5.4511 24.1002 4.28531 23.2407 3.42577C22.3811 2.56623 21.2153 2.08334 19.9998 2.08334C18.7842 2.08334 17.6184 2.56623 16.7589 3.42577Z" fill="#2490EB"/>
<path d="M10.0796 18.0817L13.7046 19.29C14.143 19.4367 14.3613 19.51 14.5263 19.6117C14.8009 19.781 15.0205 20.0264 15.1584 20.3181C15.2962 20.6098 15.3465 20.9353 15.303 21.255C15.2763 21.4467 15.1946 21.6617 15.028 22.0933L12.9496 27.495C12.7261 28.0729 12.7293 28.7139 12.9587 29.2896C13.1881 29.8652 13.6266 30.3328 14.1864 30.5985C14.7461 30.8642 15.3857 30.9085 15.9767 30.7224C16.5677 30.5363 17.0665 30.1335 17.373 29.595L19.9996 25L22.6263 29.5967C22.9328 30.1352 23.4315 30.5379 24.0226 30.724C24.6136 30.9102 25.2531 30.8659 25.8129 30.6002C26.3726 30.3344 26.8112 29.8668 27.0406 29.2912C27.2699 28.7156 27.2732 28.0746 27.0496 27.4967L24.9713 22.0933L24.9596 22.0628C24.8023 21.6514 24.7223 21.4421 24.6963 21.255C24.6528 20.9353 24.703 20.6098 24.8409 20.3181C24.9788 20.0264 25.1983 19.781 25.473 19.6117C25.638 19.51 25.8563 19.4367 26.2946 19.29L29.9196 18.0817C30.5417 17.8774 31.0615 17.4419 31.3717 16.8653C31.6819 16.2886 31.7586 15.6149 31.5862 14.9832C31.4137 14.3516 31.0052 13.8103 30.445 13.4713C29.8849 13.1323 29.2159 13.0215 28.5763 13.1617L25.4146 13.84C21.9657 14.6046 18.3939 14.6296 14.9346 13.9133L14.5846 13.84L11.4213 13.1617C10.7822 13.0229 10.1141 13.1347 9.55498 13.4739C8.99583 13.8132 8.5882 14.3541 8.41613 14.9851C8.24406 15.6161 8.32068 16.289 8.6302 16.8652C8.93971 17.4413 9.45851 17.8768 10.0796 18.0817Z" fill="#2490EB"/>
</svg>
