<svg width="40" height="40" viewBox="0 0 40 40" fill="none" xmlns="http://www.w3.org/2000/svg">
<g opacity="0.25">
<path d="M31.2798 15.4463C32.0612 14.6649 32.5002 13.6051 32.5002 12.5C32.5002 11.3949 32.0612 10.3351 31.2798 9.55373C30.4984 8.77233 29.4386 8.33334 28.3335 8.33334C27.2284 8.33334 26.1686 8.77233 25.3872 9.55373C24.6058 10.3351 24.1668 11.3949 24.1668 12.5C24.1668 13.6051 24.6058 14.6649 25.3872 15.4463C26.1686 16.2277 27.2284 16.6667 28.3335 16.6667C29.4386 16.6667 30.4984 16.2277 31.2798 15.4463Z" fill="#2490EB"/>
<path d="M8.72055 15.4463C7.93915 14.6649 7.50016 13.6051 7.50016 12.5C7.50016 11.3949 7.93915 10.3351 8.72055 9.55373C9.50195 8.77233 10.5618 8.33334 11.6668 8.33334C12.7719 8.33334 13.8317 8.77233 14.6131 9.55373C15.3945 10.3351 15.8335 11.3949 15.8335 12.5C15.8335 13.6051 15.3945 14.6649 14.6131 15.4463C13.8317 16.2277 12.7719 16.6667 11.6668 16.6667C10.5618 16.6667 9.50195 16.2277 8.72055 15.4463Z" fill="#2490EB"/>
<path d="M30.0002 31.6667C33.6835 31.6667 36.6668 29.8 36.6668 27.5C36.6668 25.2 33.6835 23.3333 30.0002 23.3333C26.3168 23.3333 23.3335 25.2 23.3335 27.5C23.3335 29.8 26.3168 31.6667 30.0002 31.6667Z" fill="#2490EB"/>
<path d="M10.0002 31.6667C6.31683 31.6667 3.3335 29.8 3.3335 27.5C3.3335 25.2 6.31683 23.3333 10.0002 23.3333C13.6835 23.3333 16.6668 25.2 16.6668 27.5C16.6668 29.8 13.6835 31.6667 10.0002 31.6667Z" fill="#2490EB"/>
</g>
<path d="M25.8333 12.5C25.8333 13.266 25.6825 14.0246 25.3893 14.7323C25.0961 15.4401 24.6665 16.0831 24.1248 16.6248C23.5831 17.1665 22.9401 17.5962 22.2323 17.8893C21.5246 18.1825 20.766 18.3333 20 18.3333C19.234 18.3333 18.4754 18.1825 17.7677 17.8893C17.0599 17.5962 16.4169 17.1665 15.8752 16.6248C15.3335 16.0831 14.9039 15.4401 14.6107 14.7323C14.3175 14.0246 14.1667 13.266 14.1667 12.5C14.1667 10.9529 14.7812 9.46918 15.8752 8.37522C16.9692 7.28125 18.4529 6.66667 20 6.66667C21.5471 6.66667 23.0308 7.28125 24.1248 8.37522C25.2188 9.46918 25.8333 10.9529 25.8333 12.5Z" fill="#2490EB"/>
<path d="M30 27.5C30 30.7217 25.5233 33.3333 20 33.3333C14.4767 33.3333 10 30.7217 10 27.5C10 24.2783 14.4767 21.6667 20 21.6667C25.5233 21.6667 30 24.2783 30 27.5Z" fill="#2490EB"/>
</svg>
