<svg width="28" height="29" viewBox="0 0 28 29" fill="none" xmlns="http://www.w3.org/2000/svg">
<path d="M14 0.5C17.713 0.5 21.274 1.975 23.8995 4.6005C26.525 7.22601 28 10.787 28 14.5C28 18.213 26.525 21.774 23.8995 24.3995C21.274 27.025 17.713 28.5 14 28.5C10.287 28.5 6.72601 27.025 4.1005 24.3995C1.475 21.774 0 18.213 0 14.5C0 10.787 1.475 7.22601 4.1005 4.6005C6.72601 1.975 10.287 0.5 14 0.5ZM12.256 17.262L9.146 14.15C9.03451 14.0385 8.90215 13.9501 8.75648 13.8897C8.6108 13.8294 8.45467 13.7983 8.297 13.7983C8.13933 13.7983 7.9832 13.8294 7.83752 13.8897C7.69185 13.9501 7.55949 14.0385 7.448 14.15C7.22283 14.3752 7.09633 14.6806 7.09633 14.999C7.09633 15.3174 7.22283 15.6228 7.448 15.848L11.408 19.808C11.5192 19.9201 11.6514 20.009 11.7972 20.0697C11.9429 20.1304 12.0992 20.1616 12.257 20.1616C12.4148 20.1616 12.5711 20.1304 12.7168 20.0697C12.8626 20.009 12.9948 19.9201 13.106 19.808L21.306 11.606C21.419 11.495 21.5089 11.3627 21.5705 11.2167C21.6321 11.0708 21.6641 10.9141 21.6649 10.7557C21.6656 10.5973 21.635 10.4403 21.5748 10.2938C21.5145 10.1473 21.4259 10.0142 21.3139 9.90208C21.202 9.79001 21.069 9.7012 20.9225 9.6408C20.7761 9.58039 20.6191 9.54957 20.4607 9.55012C20.3023 9.55067 20.1456 9.58258 19.9996 9.644C19.8536 9.70542 19.7212 9.79515 19.61 9.908L12.256 17.262Z" fill="#34AD5D"/>
</svg>
