<svg width="56" height="56" viewBox="0 0 56 56" fill="none" xmlns="http://www.w3.org/2000/svg">
<rect x="4" y="4" width="48" height="48" rx="24" fill="#00A700"/>
<rect opacity="0.25" width="56" height="56" rx="28" fill="#00A700"/>
<path d="M22 36C20.9 36 19.9583 35.6083 19.175 34.825C18.3917 34.0417 18 33.1 18 32V24C18 22.9 18.3917 21.9583 19.175 21.175C19.9583 20.3917 20.9 20 22 20H34C35.1 20 36.0417 20.3917 36.825 21.175C37.6083 21.9583 38 22.9 38 24V32C38 33.1 37.6083 34.0417 36.825 34.825C36.0417 35.6083 35.1 36 34 36H22ZM22 24H34C34.3667 24 34.7167 24.0417 35.05 24.125C35.3833 24.2083 35.7 24.3417 36 24.525V24C36 23.45 35.804 22.979 35.412 22.587C35.02 22.195 34.5493 21.9993 34 22H22C21.45 22 20.979 22.196 20.587 22.588C20.195 22.98 19.9993 23.4507 20 24V24.525C20.3 24.3417 20.6167 24.2083 20.95 24.125C21.2833 24.0417 21.6333 24 22 24ZM20.15 27.25L31.275 29.95C31.425 29.9833 31.575 29.9833 31.725 29.95C31.875 29.9167 32.0167 29.85 32.15 29.75L35.625 26.85C35.4417 26.6 35.2083 26.3957 34.925 26.237C34.6417 26.0783 34.3333 25.9993 34 26H22C21.5667 26 21.1877 26.1127 20.863 26.338C20.5383 26.5633 20.3007 26.8673 20.15 27.25Z" fill="white"/>
</svg>
